# AST/ASF file generated using VICON BodyLanguage
# -----------------------------------------------
:version 1.10
:name VICON
:units
  mass 1.0
  length 0.45
  angle deg
:documentation
   .ast/.asf automatically generated from VICON data using
   VICON BodyBuilder and BodyLanguage model FoxedUp or BRILLIANT.MOD
:root
   order TX TY TZ RX RY RZ
   axis XYZ
   position 0 0 0  
   orientation 0 0 0 
:bonedata
  begin
     id 1 
     name lhipjoint
     direction 0.602128 -0.715006 0.355257 
     length 2.21237 
     axis 0 0 0  XYZ
  end
  begin
     id 2 
     name lfemur
     direction 0.34202 -0.939693 0  
     length 6.71649  
     axis 0 0 20  XYZ
    dof rx ry rz
    limits (-160.0 20.0)
           (-70.0 70.0)
           (-60.0 70.0)
  end
  begin
     id 3 
     name ltibia
     direction 0.34202 -0.939693 0   
     length 6.97123   
     axis 0 0 20   XYZ
    dof rx
    limits (-10.0 170.0)
  end
  begin
     id 4 
     name lfoot
     direction 0.0655697 -0.180151 0.981451   
     length 1.80924   
     axis -90 7.62852e-016 20   XYZ
    dof rx rz
    limits (-45.0 90.0)
           (-70.0 20.0)
  end
  begin
     id 5 
     name ltoes
     direction 1.53545e-011 -4.21827e-011 1   
     length 0.916331   
     axis -90 7.62852e-016 20   XYZ
    dof rx
    limits (-90.0 20.0)
  end
  begin
     id 6 
     name rhipjoint
     direction -0.625414 -0.698792 0.347201   
     length 2.2637  
     axis 0 0 0  XYZ 
  end
  begin
     id 7 
     name rfemur
     direction -0.34202 -0.939693 0   
     length 7.07595   
     axis 0 0 -20   XYZ
    dof rx ry rz
    limits (-160.0 20.0)
           (-70.0 70.0)
           (-70.0 60.0)
  end
  begin
     id 8 
     name rtibia
     direction -0.34202 -0.939693 0   
     length 7.22924   
     axis 0 0 -20   XYZ
    dof rx
    limits (-10.0 170.0)
 end
 begin
     id 9 
     name rfoot
     direction -0.0766747 -0.210662 0.974547   
     length 1.98482  
     axis -90 -7.62852e-016 -20   XYZ
    dof rx rz
    limits (-45.0 90.0)
           (-20.0 70.0)
  end
  begin
     id 10 
     name rtoes
     direction -1.53532e-011 -4.21867e-011 1   
     length 0.999842   
     axis -90 -7.62852e-016 -20   XYZ
    dof rx
    limits (-90.0 20.0)
  end
  begin
     id 11 
     name lowerback
     direction -0.0224668 0.997354 -0.0691422   
     length 2.09945   
     axis 0 0 0   XYZ
    dof rx ry rz
    limits (-20.0 45.0)
           (-30.0 30.0)
           (-30.0 30.0)
  end
  begin
     id 12 
     name upperback
     direction 0.0134698 0.998451 -0.0539888   
     length 2.09758   
     axis 0 0 0   XYZ
    dof rx ry rz
    limits (-20.0 45.0)
           (-30.0 30.0)
           (-30.0 30.0)
  end
  begin
     id 13 
     name thorax
     direction 0.0241905 0.99948 -0.0213333   
     length 2.10428   
     axis 0 0 0   XYZ
    dof rx ry rz
    limits (-20.0 45.0)
           (-30.0 30.0)
           (-30.0 30.0)
  end
  begin
     id 14 
     name lowerneck
     direction -0.00866847 0.995978 0.0891737   
     length 1.3959   
     axis 0 0 0   XYZ
    dof rx ry rz
    limits (-20.0 45.0)
           (-30.0 30.0)
           (-30.0 30.0)
  end
  begin
     id 15 
     name upperneck
     direction 0.0680679 0.992203 0.104404   
     length 1.39452   
     axis 0 0 0   XYZ
    dof rx ry rz
    limits (-20.0 45.0)
           (-30.0 30.0)
           (-30.0 30.0)
  end
  begin
     id 16
     name head
     direction 0.0242216 0.999358 0.0264054  
     length 1.40433  
     axis 0 0 0   XYZ
    dof rx ry rz
    limits (-20.0 45.0)
           (-30.0 30.0)
           (-30.0 30.0)
  end
  begin
     id 17 
     name lclavicle
     direction 0.929368 0.362991 -0.0671771  
     length 3.04887  
     axis 0 0 0   XYZ
    dof ry rz
    limits (-20.0 10.0)
           (0.0 20.0)
  end
  begin
     id 18 
     name lhumerus
     direction 1 -4.48967e-011 -7.13741e-028   
     length 4.77195   
     axis -180 -30 -90   XYZ
    dof rx ry rz
    limits (-60.0 90.0)
           (-90.0 90.0)
           (-90.0 90.0)
  end
  begin
     id 19
     name lradius
     direction 1 -4.48977e-011 3.60404e-027   
     length 2.98444   
     axis -180 -30 -90   XYZ
    dof rx
    limits (-10.0 170.0)
  end
  begin
     id 20
     name lwrist
     direction 1 -4.48997e-011 7.54877e-027   
     length 1.49222   
     axis -7.18178e-015 90 90   XYZ
    dof ry
    limits (-180.0 0.0)
 end
  begin
     id 21 
     name lhand
     direction 1 -4.489e-011 1.51105e-026   
     length 0.992285   
     axis -9.63605e-015 90 90   XYZ
    dof rx rz
    limits (-90.0 90.0)
           (-45.0 45.0)
  end
  begin
     id 22 
     name lfingers
     direction 1 -4.48998e-011 3.01948e-026   
     length 0.800006   
     axis -1.92718e-014 90 90   XYZ
    dof rx
    limits (0.0 90.0)
  end
  begin
     id 23
     name lthumb
     direction 0.707107 -6.34881e-011 0.707107   
     length 1.14865   
     axis -90 45 -3.53137e-014   XYZ
    dof rx rz
    limits (-45.0 45.0)
           (-45.0 45.0)
  end
  begin
     id 24 
     name rclavicle
     direction -0.945672 0.324529 0.0196374   
     length 3.4236  
     axis 0 0 0   XYZ 
    dof ry rz
    limits (-10.0 20.0)
           (-20.0 0.0)
  end
  begin
     id 25 
     name rhumerus
     direction -1 -4.4896e-011 1.02757e-029  
     length 4.62052   
     axis -180 30 90   XYZ
    dof rx ry rz
    limits (-90.0 60.0)
           (-90.0 90.0)
           (-90.0 90.0)
  end
  begin
     id 26 
     name rradius
     direction -1 -4.48982e-011 3.85962e-027   
     length 2.95332   
     axis -180 30 90   XYZ
    dof rx
    limits (-10.0 170.0)
  end
  begin
     id 27 
     name rwrist
     direction -1 -4.48961e-011 7.55118e-027   
     length 1.47666   
     axis -7.18178e-015 -90 -90   XYZ
    dof ry
    limits (-180.0 0.0)
  end
  begin
     id 28
     name rhand
     direction -1 -4.48984e-011 1.50994e-026   
     length 0.990956   
     axis -9.63605e-015 -90 -90   XYZ
    dof rx rz
    limits (-90.0 90.0)
           (-45.0 45.0)
  end
  begin
     id 29
     name rfingers
     direction -1 -4.4892e-011 3.02158e-026   
     length 0.798934   
     axis -1.92718e-014 -90 -90   XYZ
    dof rx
    limits (0.0 90.0)
  end
  begin
     id 30
     name rthumb
     direction -0.707107 -6.34916e-011 0.707107   
     length 1.14711   
     axis -90 -45 3.53137e-014   XYZ
    dof rx rz
    limits (-45.0 45.0)
           (-45.0 45.0)
  end
:hierarchy
  begin
    root lhipjoint rhipjoint lowerback
    lhipjoint lfemur
    lfemur ltibia
    ltibia lfoot
    lfoot ltoes
    rhipjoint rfemur
    rfemur rtibia
    rtibia rfoot
    rfoot rtoes
    lowerback upperback
    upperback thorax
    thorax lowerneck lclavicle rclavicle
    lowerneck upperneck
    upperneck head
    lclavicle lhumerus
    lhumerus lradius
    lradius lwrist
    lwrist lhand lthumb
    lhand lfingers
    rclavicle rhumerus
    rhumerus rradius
    rradius rwrist
    rwrist rhand rthumb
    rhand rfingers
  end

#!OML:ASF H:\ManfredObstacles\Project 1\Capture day 1\Session 1\Male.ASF
:FULLY-SPECIFIED
:DEGREES
18
root -0.182539 16.1106 36.8366 -171.007 -11.7774 -177.922
lowerback -10.5363 -2.12627 -2.24234
upperback 1.20858 -2.66502 1.45204
thorax 7.37368 -1.43269 2.34769
lowerneck 3.24791 -5.05995 -5.9458
upperneck -12.6238 -6.62241 11.2772
head -3.6703 -3.84568 4.69625
rclavicle -3.32343e-014 3.97569e-015
rhumerus -37.1885 -36.7099 -68.3149
rradius 20.8467
rwrist 45.8824
rhand -6.08768 -9.72906
rfingers 7.12502
rthumb 19.7481 -38.7459
lclavicle -3.32343e-014 3.97569e-015
lhumerus -23.4194 15.6121 86.2201
lradius 16.2865
lwrist -32.9749
lhand -10.3062 8.0764
lfingers 7.12502
lthumb 15.6887 37.4604
rfemur -31.5996 -2.51821 18.1366
rtibia 24.5161
rfoot -6.09393 4.73296
rtoes -0.0817166
lfemur 4.06756 -6.89247 -19.3401
ltibia -4.45278e-014
lfoot -6.82511 -5.36944
ltoes 8.46764
19
root -0.181882 16.1095 36.8299 -171.015 -11.5501 -177.945
lowerback -10.4651 -2.13974 -2.31462
upperback 1.24364 -2.68103 1.53089
thorax 7.37924 -1.44603 2.47077
lowerneck 3.22626 -4.95389 -5.90342
upperneck -12.6999 -6.48835 11.1135
head -3.7097 -3.77417 4.63842
rclavicle 1.635e-014 3.08116e-015
rhumerus -37.5196 -36.8137 -67.9827
rradius 20.7892
rwrist 45.8782
rhand -6.18828 -9.47867
rfingers 7.12502
rthumb 19.6513 -38.5054
lclavicle 1.635e-014 3.08116e-015
lhumerus -23.068 14.9047 86.6604
lradius 16.394
lwrist -32.3491
lhand -10.35 8.16058
lfingers 7.12502
lthumb 15.6466 37.5479
rfemur -31.638 -2.42128 18.1298
rtibia 24.5855
rfoot -6.02886 4.85474
rtoes -0.110632
lfemur 4.12956 -6.67152 -19.3772
ltibia 7.95139e-015
lfoot -6.76728 -5.46987
ltoes 9.51821
20
root -0.182848 16.1088 36.826 -170.957 -11.3345 -177.969
lowerback -10.4486 -2.13031 -2.3243
upperback 1.25118 -2.67105 1.57241
thorax 7.37985 -1.44289 2.52227
lowerneck 3.20965 -4.85758 -5.79662
upperneck -12.7548 -6.36689 10.9062
head -3.74629 -3.70831 4.5561
rclavicle -4.29996e-014 -6.75868e-015
rhumerus -37.9027 -37.1003 -67.5677
rradius 20.7351
rwrist 46.0986
rhand -6.20097 -9.37876
rfingers 7.12502
rthumb 19.6392 -38.4068
lclavicle -4.29996e-014 -6.75868e-015
lhumerus -22.7897 14.2041 87.0251
lradius 16.548
lwrist -31.7147
lhand -10.4236 8.41205
lfingers 7.12502
lthumb 15.5757 37.8049
rfemur -31.7717 -2.50234 18.1792
rtibia 24.6485
rfoot -5.94566 5.09107
rtoes -0.815451
lfemur 4.11347 -6.46045 -19.4339
ltibia 2.70347e-014
lfoot -6.77688 -5.48662
ltoes 9.46589
21
root -0.184651 16.1104 36.8221 -170.897 -11.1295 -177.969
lowerback -10.426 -2.12732 -2.2567
upperback 1.24517 -2.67923 1.60355
thorax 7.35933 -1.44493 2.51643
lowerneck 3.16011 -4.74331 -5.79591
upperneck -12.7693 -6.21909 10.8192
head -3.75852 -3.63054 4.52497
rclavicle -4.20554e-015 3.72721e-015
rhumerus -38.1641 -37.147 -67.3485
rradius 20.6956
rwrist 46.1367
rhand -6.15578 -9.36196
rfingers 7.12502
rthumb 19.6826 -38.3855
lclavicle -4.20554e-015 3.72721e-015
lhumerus -22.5837 14.1293 87.1224
lradius 16.5787
lwrist -31.6398
lhand -10.4707 8.36186
lfingers 7.12502
lthumb 15.5303 37.7582
rfemur -31.9067 -2.66133 18.2976
rtibia 24.7108
rfoot -5.94879 5.37915
rtoes -2.11964
lfemur 4.0988 -6.25467 -19.4865
ltibia 2.8625e-014
lfoot -6.85975 -5.42223
ltoes 7.84103
22
root -0.184097 16.1085 36.8185 -170.898 -11.0308 -177.989
lowerback -10.3636 -2.15149 -2.1889
upperback 1.27401 -2.71991 1.59156
thorax 7.35313 -1.46181 2.46002
lowerneck 3.17217 -4.64077 -5.71747
upperneck -12.8506 -6.08169 10.7757
head -3.80114 -3.5684 4.49922
rclavicle 1.49213e-014 -7.15625e-015
rhumerus -38.3429 -37.1795 -67.2667
rradius 20.6243
rwrist 46.0668
rhand -6.2774 -9.03763
rfingers 7.12502
rthumb 19.5657 -38.0731
lclavicle 1.49213e-014 -7.15625e-015
lhumerus -22.3648 14.3104 87.0422
lradius 16.4769
lwrist -32.0826
lhand -10.4195 8.14063
lfingers 7.12502
lthumb 15.5796 37.5331
rfemur -31.9267 -2.6887 18.3219
rtibia 24.7476
rfoot -5.95256 5.49656
rtoes -2.81216
lfemur 4.14996 -6.15921 -19.5239
ltibia 1.11319e-014
lfoot -6.89041 -5.43197
ltoes 7.99538
23
root -0.180307 16.1065 36.8161 -170.87 -11.0291 -178.05
lowerback -10.3243 -2.16934 -2.04178
upperback 1.2821 -2.75051 1.44649
thorax 7.32603 -1.46616 2.21968
lowerneck 3.28527 -4.55623 -5.56444
upperneck -12.9111 -5.95585 10.8497
head -3.85139 -3.52379 4.50031
rclavicle 1.28216e-014 -1.0138e-014
rhumerus -38.7307 -37.6817 -67.0629
rradius 20.5176
rwrist 46.3443
rhand -6.35945 -8.62512
rfingers 7.12502
rthumb 19.4868 -37.6686
lclavicle 1.28216e-014 -1.0138e-014
lhumerus -22.1543 13.9029 86.9381
lradius 16.4106
lwrist -32.0935
lhand -10.3074 8.26191
lfingers 7.12502
lthumb 15.6876 37.646
rfemur -31.9464 -2.65478 18.2535
rtibia 24.7617
rfoot -5.95897 5.5239
rtoes -2.03096
lfemur 4.14713 -6.16733 -19.5657
ltibia -3.49861e-014
lfoot -6.90213 -5.45607
ltoes 8.66346
24
root -0.174964 16.107 36.8116 -170.849 -11.0249 -178.072
lowerback -10.2983 -2.20893 -1.87807
upperback 1.30071 -2.81554 1.34012
thorax 7.32059 -1.4882 2.00472
lowerneck 3.25565 -4.44524 -5.5896
upperneck -12.8573 -5.79987 10.974
head -3.83796 -3.45294 4.53656
rclavicle 7.0817e-015 -1.2921e-015
rhumerus -39.0287 -38.0767 -66.9333
rradius 20.4987
rwrist 46.5586
rhand -6.34052 -8.45035
rfingers 7.12502
rthumb 19.505 -37.492
lclavicle 7.0817e-015 -1.2921e-015
lhumerus -21.9742 13.3803 86.9051
lradius 16.4149
lwrist -31.7808
lhand -10.2867 8.55753
lfingers 7.12502
lthumb 15.7075 37.94
rfemur -31.9582 -2.57526 18.2175
rtibia 24.7829
rfoot -6.07431 5.47998
rtoes -0.845446
lfemur 4.13528 -6.16821 -19.5541
ltibia -1.74931e-014
lfoot -6.88036 -5.47659
ltoes 9.47156
25
root -0.170658 16.1084 36.8059 -170.857 -10.9755 -178.037
lowerback -10.2593 -2.26767 -1.81826
upperback 1.33588 -2.90636 1.39218
thorax 7.34058 -1.53199 2.01133
lowerneck 3.13828 -4.3305 -5.65446
upperneck -12.8085 -5.65377 10.9008
head -3.81664 -3.37037 4.51573
rclavicle -1.97542e-015 -2.38542e-015
rhumerus -39.0847 -38.0865 -66.8975
rradius 20.5731
rwrist 46.4395
rhand -6.32421 -8.3697
rfingers 7.12502
rthumb 19.5207 -37.4098
lclavicle -1.97542e-015 -2.38542e-015
lhumerus -21.8497 13.2374 86.9859
lradius 16.4806
lwrist -31.717
lhand -10.2593 8.7944
lfingers 7.12502
lthumb 15.734 38.1748
rfemur -31.9438 -2.46838 18.2409
rtibia 24.8052
rfoot -6.22998 5.44818
rtoes 0.395215
lfemur 4.16674 -6.11371 -19.5209
ltibia -3.81667e-014
lfoot -6.95509 -5.39819
ltoes 8.4642
26
root -0.166187 16.1068 36.8012 -170.814 -10.9133 -178.009
lowerback -10.2471 -2.27178 -1.83524
upperback 1.31256 -2.91654 1.46694
thorax 7.31434 -1.53968 2.09889
lowerneck 3.23771 -4.27121 -5.62856
upperneck -12.8467 -5.57743 10.7951
head -3.85608 -3.32851 4.48137
rclavicle -1.24116e-014 -6.95746e-016
rhumerus -39.2707 -38.0128 -66.7819
rradius 20.7233
rwrist 46.2097
rhand -6.33348 -8.23714
rfingers 7.12502
rthumb 19.5118 -37.2781
lclavicle -1.24116e-014 -6.95746e-016
lhumerus -21.8565 13.0687 87.1012
lradius 16.5575
lwrist -31.8681
lhand -10.1271 8.84388
lfingers 7.12502
lthumb 15.8613 38.2142
rfemur -31.9882 -2.38739 18.2778
rtibia 24.8187
rfoot -6.34287 5.50031
rtoes 1.47483
lfemur 4.1369 -6.04828 -19.4772
ltibia 1.74931e-014
lfoot -7.01111 -5.3913
ltoes 7.87688
27
root -0.160383 16.1061 36.796 -170.749 -10.8746 -178.048
lowerback -10.2645 -2.2802 -1.94381
upperback 1.29721 -2.9185 1.52284
thorax 7.31696 -1.54664 2.21835
lowerneck 3.31482 -4.22189 -5.633
upperneck -12.8598 -5.51079 10.7693
head -3.87949 -3.29415 4.47531
rclavicle 2.52829e-014 -1.2921e-014
rhumerus -39.3396 -37.7206 -66.8325
rradius 20.9025
rwrist 45.8406
rhand -6.34411 -8.13958
rfingers 7.12502
rthumb 19.5015 -37.1816
lclavicle 2.52829e-014 -1.2921e-014
lhumerus -21.8911 12.9271 87.2116
lradius 16.5815
lwrist -32.1053
lhand -10.0701 8.76807
lfingers 7.12502
lthumb 15.9162 38.134
rfemur -32.0371 -2.23244 18.2121
rtibia 24.8347
rfoot -6.41243 5.41115
rtoes 1.81581
lfemur 4.08587 -6.01812 -19.4713
ltibia 6.83819e-014
lfoot -6.99352 -5.45804
ltoes 8.61329
28
root -0.154609 16.108 36.7913 -170.721 -10.8575 -178.095
lowerback -10.2586 -2.32041 -2.03742
upperback 1.33688 -2.96536 1.58599
thorax 7.36752 -1.57584 2.32932
lowerneck 3.12819 -4.16358 -5.65576
upperneck -12.7721 -5.43772 10.7096
head -3.82924 -3.24856 4.45008
rclavicle 1.10015e-014 -1.88845e-015
rhumerus -39.1683 -37.3284 -67.0523
rradius 21.0767
rwrist 45.3575
rhand -6.22516 -8.18526
rfingers 7.12502
rthumb 19.6159 -37.2156
lclavicle 1.10015e-014 -1.88845e-015
lhumerus -21.7926 13.0394 87.291
lradius 16.4817
lwrist -32.3215
lhand -10.1459 8.69008
lfingers 7.12502
lthumb 15.8432 38.0619
rfemur -32.0624 -2.11105 18.134
rtibia 24.8858
rfoot -6.49353 5.28026
rtoes 2.10224
lfemur 4.08785 -6.00803 -19.515
ltibia -2.22639e-014
lfoot -7.08304 -5.37263
ltoes 7.14916
29
root -0.150095 16.1064 36.7874 -170.692 -10.8194 -178.13
lowerback -10.2582 -2.32841 -2.02455
upperback 1.37234 -2.97797 1.59126
thorax 7.40562 -1.58214 2.3249
lowerneck 2.90999 -4.10697 -5.70649
upperneck -12.6233 -5.36015 10.7677
head -3.7507 -3.20469 4.46301
rclavicle 9.0944e-015 -1.78409e-014
rhumerus -39.1078 -37.1873 -67.1873
rradius 21.2184
rwrist 45.0398
rhand -6.13096 -8.24696
rfingers 7.12502
rthumb 19.7065 -37.2681
lclavicle 9.0944e-015 -1.78409e-014
lhumerus -21.6424 13.0601 87.3015
lradius 16.2968
lwrist -32.389
lhand -10.2185 8.7216
lfingers 7.12502
lthumb 15.7733 38.0989
rfemur -32.1123 -2.13321 18.1161
rtibia 24.9519
rfoot -6.61196 5.34359
rtoes 3.04135
lfemur 4.08339 -5.97478 -19.5643
ltibia -1.43125e-014
lfoot -7.17038 -5.27943
ltoes 5.8443
